<?xml version="1.0" encoding="UTF-8"?>
<svg width="512" height="512" viewBox="0 0 512 512" xmlns="http://www.w3.org/2000/svg">
    <style>
        circle { fill: #3498db; }
        path { fill: #ffffff; }
    </style>
    <circle cx="256" cy="256" r="256"/>
    <path d="M346.8 192h-48l-25-40h-64v16h52l25 40h-93l-10-16h-24v16h14l10 16-34 54.4c-14-10.8-31.6-17.2-50.8-17.2-46 0-83.2 37.2-83.2 83.2s37.2 83.2 83.2 83.2c39.2 0 71.6-27.2 80.8-63.6h32l52-84 12.8 20.8c-18.4 14.4-30.4 36.8-30.4 62 0 44 35.6 79.6 79.6 79.6s79.6-35.6 79.6-79.6-35.6-79.6-79.6-79.6zm-241.2 160c-34 0-61.6-27.6-61.6-61.6s27.6-61.6 61.6-61.6 61.6 27.6 61.6 61.6-27.6 61.6-61.6 61.6zm96-83.2h-20.8c-4-34-32.8-60.8-67.6-62.4l30.4-48.8 58 111.2zm145.2 83.2c-32 0-58-26-58-58s26-58 58-58 58 26 58 58-26 58-58 58z"/>
</svg>
